<svg xmlns="http://www.w3.org/2000/svg" style="display:none">
  <symbol id="icon-github" viewBox="0 0 24 24" fill="none" stroke="currentColor" stroke-width="2" stroke-linecap="round"
    stroke-linejoin="round">
    <path
      d="M9 19c-5 1.5-5-2.5-7-3m14 6v-3.87a3.37 3.37 0 0 0-.94-2.61c3.14-.35 6.44-1.54 6.44-7A5.44 5.44 0 0 0 20 4.77 5.07 5.07 0 0 0 19.91 1S18.73.65 16 2.48a13.38 13.38 0 0 0-7 0C6.27.65 5.09 1 5.09 1A5.07 5.07 0 0 0 5 4.77a5.44 5.44 0 0 0-1.5 3.78c0 5.42 3.3 6.61 6.44 7A3.37 3.37 0 0 0 9 18.13V22">
    </path>
  </symbol>
  <symbol id="icon-anchor" viewBox="0 0 24 24" fill="none" stroke="currentColor" stroke-width="2" stroke-linecap="round"
    stroke-linejoin="round">
    <circle cx="12" cy="5" r="3"></circle>
    <line x1="12" y1="22" x2="12" y2="8"></line>
    <path d="M5 12H2a10 10 0 0 0 20 0h-3"></path>
  </symbol>
  <symbol id="icon-aperture" viewBox="0 0 24 24" fill="none" stroke="currentColor" stroke-width="2"
    stroke-linecap="round" stroke-linejoin="round">
    <circle cx="12" cy="12" r="10"></circle>
    <line x1="14.31" y1="8" x2="20.05" y2="17.94"></line>
    <line x1="9.69" y1="8" x2="21.17" y2="8"></line>
    <line x1="7.38" y1="12" x2="13.12" y2="2.06"></line>
    <line x1="9.69" y1="16" x2="3.95" y2="6.06"></line>
    <line x1="14.31" y1="16" x2="2.83" y2="16"></line>
    <line x1="16.62" y1="12" x2="10.88" y2="21.94"></line>
  </symbol>
</svg>